<?xml version="1.0" encoding="UTF-8"?><svg id="_层_1" xmlns="http://www.w3.org/2000/svg" viewBox="0 0 1920 1080"><defs><style>.cls-1{fill:rgba(180,180,180,.2);}</style></defs><path class="cls-1" d="M378.08,233.68c-2.1,2.7-5.4,2.9-8,.8-2-1.6-3.1-4.1-4.6-6.1-.2-.3-.7-.3-.7,.1-.1,.6-.2,1.2-.1,1.9v-.1c-.2-.6-1.3-.4-1,.3,1,2.8,2,7,.9,9.9-1.3,3-4.6,2.8-7.1,1.7-.6-.3-1.2,.3-.9,.9,1.6,3,6.2,2.8,8.2,.3,1.8-2.2,1.8-5.5,1.3-8.5,1.1,1.8,2.7,3.3,4.8,4.1,3.7,1.4,8.4-.6,8.8-4.8-.1-.9-1.2-1-1.6-.5Zm0-9.1c5-2.1,9.9-4.3,14.7-6.9,.3-.1,0-.5-.2-.4-6.9,3.1-13.8,6.1-20.9,8.6-.7,.2-.4,1.4,.3,1.1,1.8-.7,3.5-1.4,5.3-2.1l.8-.3Zm-6.2,2.4c0,.3,.1,.5,.5,.6,5.3,.5,16.4-.3,21.6-1.4,.2-.1,.2-.5-.1-.4-5.2,.5-15.9,1.5-21.1,.9l-.9,.3Zm19.2-14c-7.6,3.7-14.9,7.9-22.2,12.3-.6,.3-.1,1.2,.5,.9,7.5-3.9,14.9-8,22-12.6,.4-.3,.1-.8-.3-.6Zm-31.1,17.3c-2.2,3.6-10.6,11.1-12.8,14.7-.3,.5,.5,.8,.8,.4,2.3-3.6,10.9-11,13.2-14.5,.5-.7-.7-1.3-1.2-.6Zm0-.5c-5.9,3.1-12,6-17.6,9.6-.4,.2,0,.8,.4,.7,6.1-2.6,11.9-5.9,17.8-9.1,.7-.4,.2-1.6-.6-1.2Zm.3-2.4c-7.7,.6-15.7,1.6-22.9,4.5-.6,.2-.4,1.3,.3,1.2,7.6-1.6,15-3.6,22.8-4.3,.7-.1,.6-1.4-.2-1.4Zm17.4-29c-4.4-.9-9.3,1-13.1,3.2-.6,.3-.2,1.3,.4,1.1,2-.7,4.1-1.3,6.2-1.7,2.1-.5,4.3-.4,6.4-1,.8-.2,.9-1.4,.1-1.6Zm1.8,9.9c-.1-1.4-.9-2.4-2-3.1l-.1-.1c-.9-.8-2-1.3-3.2-1.3h-.2c-1.2,0-2.4,.5-3.2,1.3-.7,.7-1.3,1.9-1.3,3-.1,.6-.1,1.2,0,1.8,.2,.6,.5,1.1,.8,1.5,.5,1.3,1.6,2.3,3.2,2.3,.6,0,1.1-.1,1.6-.3,.8-.1,1.7-.5,2.3-1.1,1.3-.8,2.3-2.3,2.1-4Zm-27.5-3.5c-4.9,.3-9.3,2.5-13.3,5.3-.8,.5-.1,1.7,.7,1.3,4-2.4,8.4-4,12.7-5.9,.4-.2,.2-.7-.1-.7Zm1.4,12.4c-.1-1.3-.5-2.7-1.5-3.6-1-.9-2.2-1.5-3.6-1.5-1.2,0-2.4,.5-3.3,1.3-1.2,.5-1.8,1.5-2,2.7-.3,.6-.5,1.2-.5,1.9v.1c-.2,.3-.3,.7-.2,1,.2,.5,.4,.9,.8,1.2,.8,1.6,2.5,2.6,4.4,2.2,.9,.1,1.8-.1,2.6-.5,.7-.3,1.4-.7,1.9-1.2,.8-.9,1.5-2.3,1.4-3.6Zm54.8-15.1c-1.7-3.8-3.5-7.9-5.9-11.4-1.4-2-3.2-3.6-5.6-3.7-1.6-10.2-5-20.3-8.5-29.8-.4-1-1.8-1.7-2.7-.7-3.4,4.1-6.3,8.6-8.5,13.4-1,2.2-1.9,4.5-2.7,6.8-.6,1.7-1.1,3.8-2.3,5.2-13.4-4.9-29.4,3.5-40.5,10.7-.2,.1-.3,.2-.4,.4-3.4-3.9-8.8-7-13.2-9.6-5-2.9-10.3-5.2-15.8-7.1-1.5-.5-2.5,1.3-1.9,2.5l6.3,12.3c.5,1,5.8,10.7,4.3,10.9-.2,0-.4,.2-.3,.4,.4,.9,1.6,1.4,2.6,.9,1.6-.9,1.1-3.2,.5-4.5-2.4-6-5.5-11.9-8.5-17.7,3.9,1.7,7.7,3.6,11.3,5.8,4.6,2.8,8.5,6.8,13.1,9.6,1.2,.7,2.2,0,2.5-1,.3,.1,.7,0,1.1-.2,6.5-3.2,12.8-6.8,19.7-9,5.3-1.7,10.8-2.3,16.2-2.2,0,.5,.3,1.1,1,1,1.1-.1,1.9-.4,2.7-.9h.6c.7,.1,1.1-.8,.9-1.4,1.4-1.7,2.2-4.1,2.9-6.2,2.1-5.8,5.1-11.2,8.8-16,1.7,5.1,3.2,10.2,4.5,15.4,1.5,6.2,2.3,12.4,3.7,18.6,.4,1.8,3.4,1.5,3.3-.4-.1-1.4-.2-2.8-.4-4.2,1.7,1.4,2.8,3.8,3.7,5.6,1.6,3,3.1,5.9,4.4,9,2.4,5.7,3.7,11.7,3,17.9-1.4,11.7-8.8,22.1-18.6,28.5-10.3,6.7-22.7,9.5-34.9,9.6-12.6,.1-23.6-4.8-30.9-15.4-3.7-5.4-5.9-11.6-7.2-18.1-1.5-7.6-1-15-1.1-22.7,0-.5-.7-.6-.8-.1-3.6,13.1-1.8,29,5.2,40.7,6.8,11.5,17.9,18.2,31.2,19,25.9,1.6,56.9-12,60.7-40.6,1.2-7.1-.5-14.4-3.5-21.3Z"/><path class="cls-1" d="M120.41,742.85c-2-3.3-4.4-6.2-7.2-8.8,1.5-.9,3-1.6,4.5-2.4,2.2-1.1,.7-4.6-1.5-3.5-1.2,.5-2.4,1-3.5,1.5,.3-.3,.6-.6,.9-.8,1.5-1.2,.5-4-1.6-3.6-1.4,.3-3.5,.4-4.8,1l.9-1.5c1.4-2.1,3.1-4.1,2.8-6.7-.1-.7-.8-.9-1.3-.7-2.3,.8-3.4,3.1-4.6,5.1-1,1.5-3.2,3.8-2.7,5.8,.4,1.9,2.1,2.4,3.9,2.3-.5,.6-.9,1.2-1.3,1.8-.8,1.2,.1,3.6,1.8,3.1,.7-.2,1.3-.4,2-.6,.1,.2,.2,.3,.4,.4,4.6,3.8,10.6,9.7,12,15.7,.1,.4,.7,.8,1.1,.4,2.4-2.3-.5-6.2-1.8-8.5Zm-26-2.9c.1,.3,.1,.6,.2,.9,0,.2,.3,.1,.3,0,0-.3-.1-.6-.1-1-.1-.2-.5-.1-.4,.1Zm-23.8-40c-8.2-2.7-16.5-4.1-25.2-3.3-.6,.1-.5,.9,0,1,8.2,1.5,16.5,2.6,24.7,4.1,1.1,.2,1.6-1.5,.5-1.8Zm15.8-8.1c-1.8-3.8-3.5-7.6-5-11.5-1.3-3.4-2.2-7.5-4.9-10.1-.3-.3-.8-.2-.8,.2-.6,3.5,1.1,7.3,2.5,10.5,1.7,4.1,3.5,8.1,5.5,12,.9,1.8,3.6,.6,2.7-1.1Zm21.4-22.5c-2.6,6.7-4.9,13.5-7,20.4-.4,1.2,1.4,2,1.9,.8,2.4-6.9,4.5-13.8,6.2-20.8,.2-.8-.9-1-1.1-.4Zm34.9,87c-3-3.7-6.1-7.5-9.1-11.2-1.4-1.8-4.2,.4-2.8,2.2,1.1,1.4,2.3,2.8,3.4,4.3-2.4,2.3-5.1,4.3-8.2,5.6-3.2,1.4-6.9,1.4-10,2.9-1.1-1.6-2.3-2.9-3.7-3.7,.9-.2,1.6-.7,2.1-1.4,.4-.7,.2-1.6-.5-1.9-.6-.3-.9-.2-1.5,.2-.2,.1-.3,.4-.2,.6-.7-.6-1.6-.9-2.5-1-.6-.2-1.3-.3-1.9-.6-.9-.3-1.8-.7-2.7-1.2-2.2-1.1-4.3-2.6-6.2-4.2-3.6-3.1-6.5-6.9-9-10.8-5.8-9.1-12.5-24.6,.6-30.9,9.7-4.7,23.2-5.9,30.1,3.7,7,9.7,9,22.8,11.1,34.3,.2,1.1,1.9,1.2,2.1,0,1.2-11.8-2-24.7-8.2-34.8-5.7-9.4-14.7-12.4-25.3-10.6-10,1.7-20.3,5.7-21.8,17.1-1.4,10.4,5.3,21.4,11.6,29.2,3.2,3.9,7.1,7.7,11.7,9.9,1.8,.9,5.6,2.5,8.7,2.6,.7,1.3,1.8,2,2.8,3.2,1.3,1.5,2.4,3.2,3.3,5,1.2,2.5,2,5.1,3.5,7.5,3,5,7.6,5.8,12.7,3.3,3.8-1.9,7.6-4,11.3-6,2.1-1.1,4.9-2.2,4.5-5.1-.5-3.1-4-6-5.9-8.2Zm.7,9.7c-.4,.2-.8,.5-1.3,.7-1.5,1.1-3.4,1.9-5,2.8-2.6,1.5-5.4,3.5-8.3,4.3-6.2,1.6-8.4-6.4-11.8-12.4,3.4,1.4,8,0,11-1.5,3.1-1.6,5.8-3.9,7.7-6.8,.5,.7,1.1,1.3,1.6,2,1.8,2.2,5.2,5.2,6.3,7.9,1.3,.9,1.2,1.9-.2,3Z"/><path class="cls-1" d="M1615.86,625.03c7.48-8.86,15.42-18.36,20.57-28.96,3.96,.72,6.71-2.89,8.79-5.95,1.72-2.53,3.44-5.16,4.95-7.78,1.07-1.88,2.34-3.68,2.69-5.81,.39-.23,.76-.56,1.13-.98,.94-.97-.08-2.5-1.26-2.21-4.83,1.15-10.33-.05-14.74,2.77-2.97,1.92-5.06,4.88-5.62,8.23-.19,.11-.38,.33-.36,.63-.07,1.81-.06,3.21,.85,4.75,.91,1.44,2,2.66,3.45,3.36,.21,.09,.31,.08,.51,.06-.47,.43-.94,.87-1.51,1.31-.19,.21-.27,.42-.26,.62-1.47,1.81-2.95,3.62-4.32,5.43-.34-.58-.78-1.05-1.21-1.52-.99-1.13-1.98-2.36-3.15-3.38-.22-.18-.42-.27-.62-.26,1.83-2.44,3.55-4.97,5.38-7.41,.36-.53-.29-1.18-.75-.65-7.85,9.39-15.36,19.16-22.56,29.2-7.38,10.26-14.95,20.63-20.55,31.96-.17,.41,.17,.89,.57,.86l-.09,.11c-.76,.66,.35,2.08,1.1,1.42,9.97-7.74,18.87-16.3,27.01-25.81h0Zm13.05-22c-.92,1.17-1.74,2.33-2.56,3.39-1.54-1.79-2.97-3.6-4.79-5.17,1.01-1.38,2-2.85,3.1-4.23,.66,2.16,2.25,4.75,4.25,6.01Zm-40.23,45.52c7.25-9.35,13.43-19.52,20.15-29.23,3.72-5.38,7.45-10.67,11.28-15.96,.59,1.16,1.37,2.31,2.34,3.24,.76,.75,1.6,1.29,2.43,1.73-3.66,4.88-7.42,9.76-11.39,14.36-7.88,8.99-16.28,17.62-24.81,25.85h0Z"/><path class="cls-1" d="M89.3,157.4c-5.2-7-4.5-16.7-.7-24.2,4.1-8.2,12.4-11.7,19.4-17,6.5-4.8,11-11.2,11-19.5,0-4.2-1.1-8.3-2.8-12.3,13.6,6.2,29.6,4.6,42.5-4,9-6,16.9-14.3,27.4-17.7,4.5-1.5,9.9-2.1,14.4-.2,4.3,1.8,8.8,6.4,7.1,11.3-.5,1.4,1.4,2.4,2.1,1,3.5-7.4-2.3-15.1-9.4-17.4-9.4-3-19.7,.6-27.7,5.8-10.5,6.8-19.5,16.8-32.4,18.8-10.5,1.6-21.3-1.3-29.4-8.1-2.7-2.3-6.2,1-4.5,4,3.8,6.8,8.5,15.4,6.1,23.5-2.6,9-13.1,12.8-19.9,18-12.4,9.4-17.5,28.1-5.2,39.9,1.1,1.1,3-.6,2-1.9h0Z"/><path class="cls-1" d="M1854.05,923.61c5.8,6.4,6.2,16.1,3.2,24-3.3,8.6-11.2,12.9-17.6,18.8-5.9,5.4-9.8,12.2-9,20.5,.4,4.2,2,8.2,4,11.9-14.2-4.8-29.9-1.6-41.9,8.3-8.4,6.9-15.4,15.9-25.5,20.4-4.4,1.9-9.6,3.1-14.3,1.7-4.4-1.4-9.4-5.5-8.2-10.5,.3-1.4-1.7-2.2-2.2-.8-2.7,7.8,3.8,14.8,11.1,16.3,9.7,2.1,19.5-2.6,27-8.5,9.8-7.8,17.8-18.6,30.5-22,10.2-2.7,21.3-.9,30,5.1,2.9,2,6-1.6,4.1-4.4-4.5-6.4-10-14.5-8.5-22.7,1.7-9.2,11.7-14.1,18-19.9,11.4-10.6,14.6-29.7,1.1-40.2-1.2-1.1-2.9,.8-1.8,2h0Z"/><path class="cls-1" d="M1777.16,794.63c-9.1-3.6-19.5-4.4-29.1-5.9-5.1-.8-10.2-1.6-15.3-2.5-5.1-.9-10.2-2.1-15.3-2.4-.6,0-.9,.8-.3,1.1,4.5,1.7,9.5,2.5,14.3,3.4,5.1,1,10.2,1.9,15.3,2.7,5,.8,10.1,1.4,15.2,2.2,5,.8,9.9,2.2,14.8,3.3,1.1,.2,1.4-1.5,.4-1.9Zm4.7-9.6c-19.5-1.9-38.5-8.5-58.1-9.5l-.1-.1c-.2-.1-.3,0-.4,0-1.5-.1-2.9-.1-4.4-.1-.8,0-1,1.1-.1,1.3,10.5,1.8,20.9,3.3,31.3,5.6,10.5,2.3,20.9,4.7,31.6,5.8,1.8,.1,2.1-2.9,.2-3Zm2.8-5.5c-5.1-2.5-11.4-3.6-16.8-5-5.1-1.3-10.2-2.5-15.4-3.5-5.4-1-10.8-1.9-16.3-2.7-2.8-.4-5.7-.7-8.5-1.1-1.6-.2-3.2-.5-4.7-1-1.1-.4-1.8-.9-2.9-.9-.3,0-.4,.2-.3,.4,1.3,3.8,8.5,4.2,11.8,4.6,6,.8,12,1.8,17.9,3,6,1.2,11.9,2.5,17.8,4,5.5,1.4,11.1,3.7,16.8,4.6,1.6,.5,1.9-1.8,.6-2.4Zm-10.9-16.3c-2-1.3-4.5-1.6-6.7-2.1-3-.7-6-1.3-9-1.8-5.8-1-11.7-1.9-17.6-1.7-.1,0-.2,.2-.1,.3,1.8,1.7,4.4,1.8,6.8,2.2,3,.4,6,1,9,1.5,2.8,.5,5.6,1.1,8.4,1.7,2.8,.7,5.7,1.9,8.7,1.8,.9-.1,1.2-1.5,.5-1.9Zm-.5-12.6c-3.6-2.2-8.6-2.5-12.7-3.2-4.7-.8-9.5-1.6-14.3-1.7-1.6,0-1.8,2.1-.2,2.5,4.5,1.1,9.1,1.7,13.7,2.6,4.1,.8,8.7,2.7,12.9,2.4,1.2-.2,1.6-2,.6-2.6Zm21.2,43.1c1.3-4.7,2.5-9.4,3.5-14.2,2.2-10,3.6-20.3,4.5-30.5,.3-3.1,1.8-8.5-1.6-10.5-1.8-1.1-4.3-1.4-6.3-2-2.7-.8-5.4-1.6-8.1-2.3-10.3-2.9-20.6-5.7-31-8.3-11.6-2.9-23.2-5.8-35-7.7-1.1-.2-1.6,1.6-.5,2,18.9,5.5,38.1,9.8,57,15.1,4.7,1.3,9.4,2.6,14.1,4,2.2,.6,4.9,1.1,7,2.1s1,4.2,.8,6.2c-.9,9.3-2.4,18.6-4.3,27.8-1.1,5.5-2.4,10.9-3.8,16.3-.6,2.4-1.3,4.9-2,7.3-.6,2.3-1.5,4.7-1,7,.1,.6,.9,1,1.4,.5,3.3-2.8,4.2-8.8,5.3-12.8Zm-84.7-18.9c.6-2.6,1-5.1,1.4-7.7,.8-4.8,1.6-9.5,2.5-14.3,1.8-9.8,4.6-19.6,5.8-29.5,.2-1.3-1.7-1.7-2.2-.5-3.6,9.3-5.3,19.4-7.2,29.1-1,4.9-1.9,9.9-2.7,14.8-.4,2.6-.8,5.1-1,7.7-.2,2-.5,4,.4,5.9,.2,.4,.7,.4,.9,.1,1.5-1.5,1.7-3.6,2.1-5.6Z"/><path class="cls-1" d="M147.25,286.93c-.9-.9-2-1.8-3.7-2h-.3c-2.1-.9-4.6-.7-6.7,.8-.3,.2-.6,.4-.8,.7-2.6-.9-5.2-1.8-7.7-2.5-1.2-.4-2.4-.7-3.5-1.1-5.6-1.8-11.3-3.5-16.8-5.2l-2-.6c0-.8-.1-1.5-.3-2-1.5-3.1-6-4.5-8.3-3.9-1.5,.4-2.6,1.1-3.3,2.2-3.2-1-6.9-2.1-10.5-3.2-1.5-.4-2.9-.9-4.3-1.3-1.8-.6-3.6-1.2-5.5-1.7-.9-.3-1.8-.6-2.8-.9-.9-.3-1.9-.6-2.9-.9-.1,0-.3-.1-.6-.2-1-.4-2.4-.9-3.7-1.1-1.8-.2-2.7,.5-3.1,1.1-.5,.7-.6,1.7-.2,2.6,1.1,2.4,4.3,3.2,6.7,3.7,.7,.2,1.3,.3,1.7,.4,6.9,2.4,14,4.8,21.7,7.3-.1,1.1,.1,2.2,.5,3,.8,1.7,2.1,2.9,3.6,3.4,.8,.3,1.5,.4,2.3,.4,2.6,6.8,5.5,13.6,8.2,20.2,1,2.3,2,4.7,2.9,7l1.3,3.2c1.9,4.5,3.8,9.1,5.8,13.6,.4,.8,.7,1.6,1.1,2.5,.9,2.2,1.9,4.4,2.9,6.6-1.1,1-1.9,2.2-2.3,3.4-1.1,3.1,.1,6.4,2.9,8,1.8,1,3.9,1.1,5.7,.3,1-.4,1.9-1.1,2.6-2,0-.1,.1-.1,.1-.2,1.4-1,2.3-2.9,2.4-4.3,.2-1.7-.4-3.7-1.4-4.9-.8-.9-1.8-1.6-2.9-2-1-2.6-2.1-5.1-3.1-7.6-.3-.7-.6-1.5-.9-2.2-2.1-4.9-4.3-9.8-6.4-14.5l-1.2-2.8c-1.6-3.7-3.1-7.3-4.6-10.7-2.1-4.9-4.2-10-6.6-15.1,.3-.1,.5-.3,.8-.5,2.3,.7,4.5,1.3,6.6,1.9,2.1,.5,4.3,1.1,6.6,1.8,1.6,.5,3.2,1,4.9,1.6,3.5,1.1,7,2.3,10.6,3.3-.1,.6-.1,1.3,0,1.9,.2,2,1.1,3.8,2.5,5.2,1.6,1.6,4.1,2.3,6.5,1.9,3-.4,5.6-2.5,6.9-5.8,1-2.5,1-6.4-1.4-8.8h0Z"/><path class="cls-1" d="M378.86,885.01q-.1,0,0,0Zm-53.7,24c-1.1-1.4-3.1-2.1-4.7-1.4-2.1-.1-3.4,1.7-3.6,3.6-.1,1,0,2.1,.5,3,.6,1,1.6,1.6,2.7,1.8,1.9,.5,4-.1,5.1-1.6,1.1-1.6,1.3-3.9,0-5.4Zm23.9,21.9c.1,1.2,1.1,2.4,2.2,2.6,1.2,.8,2.7,.3,3.5-.7,.4-.5,.8-1.2,.8-2s-.4-1.5-.9-2.1c-.9-1-2.4-1.4-3.7-1-1.1,.5-2,1.8-1.9,3.2Zm-36.9,4c.6,.3,1.5,.3,2-.2,.8-.3,1-1.2,.8-1.9-.1-.4-.3-.8-.7-1-.4-.3-.8-.3-1.3-.3-.8,.1-1.5,.7-1.7,1.4-.1,.7,.2,1.6,.9,2Zm12.1,16.8c.4,.8,1.2,1.5,2.1,1.4,1,.3,1.9-.3,2.3-1.3,.2-.5,.3-1,.2-1.5-.1-.6-.6-1-1.1-1.3-.9-.5-2-.5-2.8,.1-.7,.6-1.1,1.7-.7,2.6Zm8.2-.9c-1,1.7-1,4.1,.3,5.5,.7,2.2,3.1,3,5.2,2.5,1.1-.3,2.2-.8,2.9-1.7,.8-1,1-2.3,.9-3.5-.2-2.2-1.7-4.2-3.7-4.8-2.1-.7-4.5,0-5.6,2Zm30.6-18.8c-1.1,1-1.6,2.7-1,4,.1,1.8,1.6,2.8,3.2,2.9,.8,0,1.8-.1,2.5-.6,.8-.5,1.2-1.4,1.4-2.4,.3-1.6-.3-3.4-1.6-4.3-1.3-.8-3.2-.8-4.5,.4Zm2.3-20.8c-3.1-1.4-7.2-.9-9.3,1.5-3.6,1.7-4.5,5.9-3.3,9.3,.7,1.8,1.8,3.6,3.4,4.7,1.8,1.2,4.1,1.3,6.2,.9,3.7-.8,6.8-3.7,7.5-7.2,.7-3.6-1-7.6-4.5-9.2Zm.6-30.5c-18.9-8.6-43.6-5.4-56.9,9.4-22.1,10.1-27.4,35.7-19.8,56.8,4,11,10.7,21.8,21,28.5,10.9,7.1,25.1,8,37.7,5.3,22.5-4.8,41.7-22.5,45.9-44.1,4.2-21.8-6.2-46-27.9-55.9Zm-10.2,86.8c-9,4-19.7,5.9-29.5,3.8-10.6-2.3-17.9-9.7-22.9-18.4-8.7-15-11-35.3-.8-49.1,1,.8,2.8,.8,3.7-.4,12.2-15.2,31-22.8,50.6-16.4,18.2,5.9,28.8,23.2,28.3,41-.6,17.6-13.1,32.2-29.4,39.5Z"/><path class="cls-1" d="M1559.41,434.19c-8,1.3-15.2,.1-22.9-1.5-5.5-1.1-12.8-.7-17,3.5-.6,.6-.1,1.6,.7,1.4,3.6-.6,6.8-1.8,10.5-1.7,3.8,.1,7.5,1.4,11.2,2.1,6.4,1.3,12.4,.6,18.4-1.6,1.3-.4,.5-2.4-.9-2.2Zm1.3-9.7c-6.4-1.8-14.4-2.1-21-1.7-4.6,.3-9.7,1.7-11.8,6.1-.1,.3,.2,.6,.5,.4,10-6.5,21.2-1.5,32.2-3.3,.7,0,.8-1.3,.1-1.5Zm1.4-9.8c-8.3,2.2-24.4-9.1-28.5,3.4-.2,.6,.6,.9,.9,.5,4.4-5.4,11.9-2.1,17.2-.9,4.1,.9,7.4,.7,11-1.7,.6-.4,0-1.4-.6-1.3Zm21.6-4.5c-7.9-13.5-23.7-19.6-38.8-17.6-16.4,2.1-32.4,12.8-41.7,26.3-9.3,13.5-9.9,34.5,6.2,43.2,.1,.1,.3,.1,.4,.1-4.1,6.2-7.9,12.6-13,18.3-1.7,2,.1,5.7,2.8,4.2,6.3-3.5,12.5-7.1,18.8-10.8,2.9-1.7,5.8-3.4,8.6-5.3,2.4-1.7,4.9-3.1,6.7-5.4,14.1,1.1,28.6-2.5,40-11.3,12.4-9.9,18.4-27.4,10-41.7Zm-10.4,35.8c-12.6,11.8-32.5,14.6-49.1,12.4-1.7-.2-2.4,2.6-.6,3.1,1.6,.4,3.3,.7,4.9,1-1.2,.6-2.5,1.2-3.7,1.8-3.3,1.6-6.4,3.4-9.5,5.2l-7.2,4.2c2.6-4,4.8-8.3,6.2-12.8,.5-1.7-1.8-2.9-2.8-1.4-.2,.3-.4,.5-.5,.8l-.3-.3c-11.5-8.1-10.7-24.4-4-35.3,7.1-11.7,20-20.9,33.1-24.6,12.9-3.6,27.1-1.2,36.3,9.1,10,11.2,7.9,26.8-2.8,36.8Z"/><path class="cls-1" d="M392.03,404.51c-2-2.6-4.7-4.2-7.7-4.6,.9-4.1,.7-8.3-.5-12.2-.5-1.5-1.1-3-1.9-4.4-.1-.1-.2-.3-.2-.4-3-5.1-7.8-8.7-13.6-10.2-11.7-3-23.3,3.8-26.9,15.5-2.9-1.9-6.6-3.5-10.3-3.3-1.5,.1-3.1,.5-4.6,1.3s-2.7,1.9-3.6,3.2c-1.3,1.8-2,3.9-1.9,6.1-1.8-.4-3.5-.5-5.2-.3-2.1,.2-4.2,.8-6.2,1.8-1.1,.6-2.2,1.2-3.2,2.1-5.4,4.3-8.6,11.4-8.2,18.5,.4,7.8,4.5,15.1,10.9,19.1,4.7,3,10.1,3.8,15.4,2.5,1.8,1.5,3.8,2.8,6,3.7,4.8,2,10.3,2.1,15.2,.5,5.3-1.6,9.5-3.8,12.4-8.5,.5-.8,1-1.6,1.4-2.5-.4,.9,3.3,2.6,3.8,2.8,6.3,2.4,13.7,.2,19.4-2.7,5.5-2.9,10.3-7.5,12-13.7,.3-1,.5-2,.6-3.1,0-.5,.1-.9,.1-1.4,.1-3.5-1-7.1-3.2-9.8h0Zm-2.2,13.3c-1.9,6.4-9.4,10.9-15.5,12.6-4.7,1.3-9.3,.6-12.9-2.8-1.1-1-2.5-2.2-3.9-1.6-1.4,.5-1.8,2.4-2.4,3.7-.7,1.6-1.5,3.2-2.7,4.6-1.8,2.1-4.1,2.5-6.6,3.7-4.4,2.1-9.4,2.2-14,.3-1.2-.5-2.4-1.2-3.4-1.9-1-.7-2-1.6-2.8-2.5-.1,0-.2,.1-.4,.1-1.6,.6-3.3,1-4.9,1.1-3.4,.2-6.8-.8-9.8-2.9-5.1-3.6-8.2-9.8-8-16.2,.1-5.3,2.6-10.2,6.5-13.2,.4-.3,.8-.6,1.2-.8,1.2-.8,2.5-1.3,3.9-1.6,3-.7,6.1-.4,9.2,1.1,.9,.4,1.9,.2,2.7-.7,.7-.8,.8-1.8,.3-2.7-1.2-2-1.4-3.7-.4-5.2,1.4-2.1,5-3.4,8.1-2.8,2.8,.5,5.1,2.3,7.3,4,.6,.5,1.4,.6,2.2,.3,.8-.3,1.5-1.1,1.6-2,.8-5.3,3.8-10.1,8.2-12.9,4.1-2.7,9-3.5,13.8-2.2,4.8,1.3,8.7,4.4,10.9,8.7,2.4,4.7,2.6,10.4,.6,15.5-.3,.8-.2,1.8,.4,2.5,.6,.7,1.5,1.1,2.4,.9,3-.6,4.9,.7,6,2,2.1,2.2,2.9,5.8,2.8,8.8,0,.7-.2,1.4-.4,2.1h0Z"/><path class="cls-1" d="M1529.99,932.66c1.02,.22,2.08,.57,3.1,.79,2.31,.58,4.79,1.25,7.19,1.65,1.47,.23,2.9,.33,4.33,.43,2.01,.08,4.11,.2,6.1,.72,.31,.06,.53,.29,.47,.6-.01,.22-.15,.49-.47,.65-3.71,1.16-8.32,1.03-12.75-.03-3.15-.7-6.11-1.75-8.67-2.92-.44-.24-.64-.7-.49-1.18,.2-.57,.7-.87,1.19-.72Zm76.49-12.29c1.23-.58,3.03-.96,4.54-.59-.2-.68-.53-1.32-.96-1.78-.61-.56-1.31-.94-2.11-.93-.81,.01-1.54,.3-2.1,.91-.23,.21-.59,.25-.94,.05-.21-.23-.29-.5-.1-.85,.85-1.36,2.53-1.92,4.26-1.54,1.65,.33,3.02,1.77,3.63,3.58,1.28,4.12-1.11,8.06-3.82,10.11-1.47,1.02-3.7,1.97-5.65,1.58q-.09-.05-.23,0c-.31-.06-.48-.38-.47-.6,.06-.31,.2-.57,.56-.6,1.94-.42,3.52-.81,5.09-2.01,1.43-1.15,2.52-2.72,2.89-4.46,.12-.62,.28-1.33,.25-1.92l-.08-.05c-.54-.06-.99-.08-1.43-.1-.86,.1-1.71,.21-2.49,.58-1.36,.62-2.74,1.69-3.83,3.26-.1,.18-.37,.26-.63,.11-.26-.14-.34-.42-.25-.59,.48-1.91,1.83-3.33,3.87-4.15Zm-103.88-72.23c.35-.84,.69-1.67,.99-2.42l.26,.14c.05-1.34,.24-2.72,.77-3.91,.7-1.9,1.92-3.51,3.44-4.62,.79-.6,1.7-1.01,2.47-1.39,.32-.17,.73-.29,.87-.55,.15-.26,.2-.57-.04-1.17-.13-.18-.21-.46-.25-.59-.29-.73-.66-1.5-.63-2.39-.01-1.03,.59-2.53,1.84-2.53,.5-.07,1.02,.22,1.37,.41l.35,.19,1.99,.74c1.24,.45,2.52,.81,3.67,1.21,.49,.15,.88,.26,1.37,.41-.11-.63-.04-1.39,.08-2.01,.42-1.82,1.72-3.16,3.41-3.95,4.09-1.64,7.88,1.01,10.94,3.14l.74,.52c3.62,2.55,7.51,5.02,11.94,6.3,3.23,.97,6.79,1.33,11.23,1.13,3.19-.2,6.47-.57,9.57-1.03,4.41-.55,9.09-1.18,13.56-1.02,4.15,.11,7.7,.91,10.83,2.28,3.57,1.61,6.56,4.27,9.5,6.8l1.18,.98c3.64,3.13,7.35,5.73,11.12,7.8l.09,.05c.79,.43,1.19,.54,1.46,.23,.28-.3,.48-.88,.64-1.36,.05-.31,.15-.49,.21-.8,.3-.97,.57-2.08,1.27-2.95,.51-.52,1.06-.9,1.78-.96,.49-.07,.97,.3,1.18,.76,.92,2.9,1.71,5.84,2.31,8.9,.83-.68,1.89-1.36,3.15-1.58,1.67-.34,3.38,.48,4.27,1.77,1.02,1.47,.6,3.29-1.03,5.02-1.12,1.21-2.28,2.29-3.75,3.31,1.69,2.53,2.65,5.78,2.98,10.18,.25,4.13,.17,8.64-.38,13.81-.99,9.72-3.4,19.12-7.17,27.88-1.77,4.28-4.02,8.4-6.49,12.29-.49,1.1-1.07,2.15-1.73,3.16-1.75,2.58-4.19,4.32-6.67,4.9-2.08,.46-4.22,.2-5.97-.76-1.66,7.41-3.72,14.5-8.91,19.4-3.01,2.8-6.87,4.22-10.9,5.55-8.15,2.61-17.01,3.58-26.19,2.65-3.26-.3-6.5-.82-9.74-1.57-5.11-1.09-10.38-2.71-15.89-4.93-6.75-2.67-13.74-5.92-21.99-10.44-4.03-2.21-7.8-4.5-9.84-8.47-2.33-4.7-1.54-10.31-.23-15.63l.22-1.02c1.12-4.75,2.28-9.58,1.11-14.1-.32-1.09-.73-2.22-1.18-3.27-.69-1.86-1.47-3.77-1.62-5.79-.07-1.75,.31-3.48,.77-5.16,.06-.31,.2-.57,.26-.89,1.63-6.52,1.8-13.49,2.09-20.28,.26-8.18,.44-16.63,3.32-24.4Zm-4.01,48.99c.19,2.38,.81,4.77,2.19,7.47,.78-4.13,1.52-8.4,2.26-12.67-.69-.83-1.19-1.79-1.6-2.7-.21-.45-.41-.91-.57-1.45-.53,.97-.92,1.89-1.28,2.95-.88,2.03-1.18,4.25-1,6.41Zm125.47,7.79c2.53-8.99,3.67-18.17,3.52-27.26-.11-4.39-.57-8.97-3.31-12.07-.31-.28-.34-.64-.32-1.09,.05-.31,.25-.66,.57-.83,1.28-.89,2.48-1.83,3.5-2.87l.23-.22c.98-.95,1.77-1.77,1.4-2.54-.21-.46-.65-.7-1.14-.85-.31-.06-.67-.03-.94,.05-1.17,.27-2.28,1.26-3.26,2.21-.28,.3-.82,.46-1.31,.31-.39-.11-.65-.47-.68-.83-.6-3.07-1.25-6.04-2.13-9.03-.19,.35-.29,.75-.35,1.06-.05,.09-.06,.31-.15,.49-.32,1.2-.72,2.57-1.91,3.29-1.61,1.06-3.49-.08-4.76-.89l-.61-.34c-1.8-1.1-3.68-2.24-5.47-3.56-1.87-1.37-3.56-2.86-5.25-4.36-1.56-1.31-3.16-2.76-4.77-3.98-3.1-2.26-6.49-3.78-10.13-4.4-5.74-.97-11.63-.21-17.35,.65-1.48,.21-3.1,.47-4.67,.63-3.06,.38-7.1,.68-11.07,.44-4.07-.28-8.01-1.42-11.65-3.3-2.33-1.16-4.56-2.72-6.21-3.86-.48-.38-1.01-.66-1.49-1.04-1.48-1.04-3-2.22-4.73-2.82-1.67-.69-3.91-.77-5.34,.61-.56,.61-.91,1.44-.89,2.25-.02,.45,.18,1.12,.7,1.64,.39,.33,.5,.96,.21,1.48-.24,.44-.74,.73-1.23,.58-3.41-.84-6.82-1.91-10.13-3.15-.02,.45,.32,1.09,.44,1.27l.04,.14c.42,.91,.78,1.91,.52,3.02-.37,1.51-1.65,2.18-2.83,2.67-.46,.21-.86,.33-1.23,.58-2.66,1.74-4.05,5.31-3.44,8.38,.85,3.66,4.16,5.93,7.18,7.92l.47,.38c3.67,2.46,7.57,4.71,11.92,6.98l.53,.29c-.51-.96-.91-2.09-1.41-3.27l-.07-.27c-.45-1.27-1.18-3.27-.42-4.45,.19-.35,.65-.78,1.51-.88,.99-.14,1.91,.25,2.75,.59,.18,.1,.49,.15,.66,.25,1.15,.4,2.39,.85,3.54,1.25,2.65,.99,5.42,2.17,7.96,3.79,.26,.14,.43,.46,.37,.77-.06,.31-.25,.66-.52,.74-.27,.08-.49,.07-.76-.07-1.01-.44-1.94-.83-2.95-1.27-1.45-.68-3.04-1.32-4.62-1.96-1.33-.5-2.65-.99-4.03-1.4l-.39-.1c-.4-.1-.89-.26-1.29-.36l-.09-.05c-.08-.05-.17-.1-.31-.06,.04,.14,.12,.41,.07,.49l.04,.14c.68,2.31,1.5,4.35,2.68,6.14,.43,.69,.94,1.42,1.49,2.07,6.78,3.03,13.95,5.35,21.45,7.06,3.46,.76,7.19,1.43,11.37,2.12-1.35-.86-2.65-2.02-3.77-3.32-1.24-1.48-2.26-2.95-2.96-4.58l-.13-.18c-.54-1.09-1.61-3.51-.01-4.57,.74-.51,1.71-.21,2.38,.04,.08,.05,.26,.14,.39,.1l6.55,1.99,.18,.1c.75,.3,1.15,.4,1.46,.46-.13-.18-.17-.32-.26-.37-.04-.14-.12-.18-.16-.32l-1.51-2.88c-.04-.14-.13-.18-.16-.32-.26-.37-.55-.87-.49-1.41-.06-.72,.27-1.11,.63-1.36,.97-.73,2.56-.31,3.54,0,.17,.1,.31,.06,.4,.1l1.73,.38c1.82,.43,3.64,.85,5.59,1.24,1.2,.31,2.31,.58,3.5,.89,.23,0,.4,.1,.71,.16,.94,.17,1.96,.39,2.56,1.17l.12,.18v.22l-.06,.31-.18,.13c-.78,.37-1.63,.25-2.25,.14-.09-.05-.31-.06-.4-.11-1.02-.22-2.09-.35-3.11-.56-1.95-.39-3.91-.77-5.81-1.24l-3.87-.86c.17,.32,.34,.64,.59,1.01,.17,.32,.25,.59,.46,.82,.13,.18,.26,.37,.34,.64,.33,.64,.76,1.33,.95,2.01,.11,.85-.18,1.38-.46,1.68-.7,.65-1.77,.74-2.71,.57-1.33-.27-2.57-.72-3.85-1.08-.58-.2-1.24-.45-1.86-.56l-2.74-.82-.09-.05,.04,.14c.04,.14,.13,.18,.08,.27,.57,1.45,1.33,2.78,2.31,4.11,2,2.58,4.83,4.7,8.27,6.12,.18,.1,.35,.19,.43,.46,3.3,.43,6.59,.87,9.85,1.17l1.38,.18c2.45,.32,4.9,.63,7.31,.81l1.07,.13c.05-.09,.18-.13,.27-.08,.36-.03,.76,.07,.92,.39,.43,.69,.67,1.5,.9,2.32l.24,.81c.28,.95,.65,1.95,1.01,2.95,.82,2.04,1.74,3.91,2.7,5.69,1.05,1.83,2.2,3.48,3.48,5.1,.68,.83,1.46,1.71,2.02,2.36,.55,.65,1.54,1.76,2.57,1.75,.45,.02,.75,.3,.87,.7,.12,.41-.12,.85-.53,.96-.72,.29-1.4,.26-2.11,.1-.11,1.88-.29,4.29-.33,6.66,0,1.25,.12,2.69,.8,3.74,.6,.78,1.47,1.49,2.42,1.21,.81-.24,1.46-.8,2.15-1.44,.7-.65,1.39-1.29,2.34-1.57,2.86-1.06,5.03,2.07,5.75,3.03,1.24,1.7,2.05,3.97,2.54,6.41,.22,1.26,.31,2.56,.26,3.9,2.41-5.86,4.64-11.6,6.24-17.45Zm-120.76-19.92c.82-9.01,2.72-17.89,5.68-26.42l1.02,.22-9.71,68.56c-.6,4.23-.93,8.38,.87,11.53,1.35,2.33,3.76,3.76,6.39,5.2,10.35,5.66,24.19,12.67,38.93,15.72,8.31,1.7,16.3,2.08,23.9,1.11,4.05-.52,8.07-1.4,11.74-2.7,3.62-1.21,7.39-2.68,10.05-5.67,.24-.22,.38-.48,.56-.61,.15-.26,.38-.48,.48-.65,.84-1.13,1.51-2.36,2.15-3.72,2.03-4.13,3.01-8.84,3.98-13.32,.11-.4,.43-.79,.84-.91,.14-.04,.41-.12,.58-.02,.23,0,.4,.1,.53,.29,1.43,1.35,3.56,1.83,5.68,1.28,1.99-.51,3.83-2.01,5.26-4.19,2.42-3.8,3.32-8.78,2.36-13.07-.5-2.21-1.41-4.08-2.7-5.47-.74-.74-1.38-1.44-2.2-1.2-.54,.16-1.14,.63-1.65,1.15l-.23,.22c-1.53,1.33-3.37,2.6-5.57,1.63-2.02-.88-3.28-3.17-3.39-6.3-.11-2.91,.27-5.9,.59-8.57-.78-.66-1.43-1.35-2.11-2.18-1.5-1.84-2.86-3.73-4.04-5.74-1.22-2.15-2.21-4.29-3.07-6.47-.49-1.41-.81-2.49-1.12-3.58l-.08-.27c-.08-.27-.2-.68-.23-1.04-.63-.11-1.3-.14-1.92-.25-.45-.02-.84-.12-1.29-.14l-8.02-.97c-10.38-1.23-21.07-2.53-31.53-5.29-4.48-1.2-8.9-2.7-13.17-4.47-.14,.04-.28,.08-.45-.02-.84-.34-1.72-.6-2.51-1.26-4.05-1.76-7.99-3.92-11.81-6.12-2.32-1.38-4.33-2.71-6.38-4.18-1.83-1.23-3.62-2.55-5.21-4.22-1.42-1.57-2.25-3.17-2.73-4.8-2.33,12.18-2.62,24.79-.47,36.9Zm14.74-1.74c1.72-.43,3.37-.32,5.33-.16,1.52,.15,3.21,.39,5.08,.72,1.73,.38,3.46,.76,5.09,1.31,1.06,.35,1.86,.56,2.61,.86l.27,.14c.57,.2,1.32,.5,1.65,1.14,.04,.14,.08,.27-.01,.45-.05,.09-.15,.26-.28,.3-.64,.34-1.3,.09-1.88-.11-.09-.05-.17-.1-.31-.06l-.31-.06c-.71-.16-1.46-.46-2.17-.62-1.68-.46-3.41-.84-5.15-1.22-1.46-.23-3.11-.56-5.07-.73-.45-.02-.85-.12-1.29-.14-1.07-.13-2.19-.17-3.21-.39-.22,0-.4-.1-.62-.11-.32-.06-.39-.33-.39-.55,.24-.44,.39-.7,.66-.78Zm41,9.44c-.18-.1-.25-.37-.33-.64,0-.22,.15-.49,.42-.57,.64-.33,1.4-.26,2.02-.15h.22c1.07,.14,1.88,.12,2.64,.2,1.96,.16,3.6,.49,5.16,.77l4.93,.99,.62,.11c1.51,.37,3.15,.7,4.46,1.64,.26,.14,.38,.55,.33,.86-.06,.31-.43,.57-.74,.51-1.3,.09-2.58-.28-3.87-.64-.31-.06-.71-.16-1.02-.22-1.73-.38-3.37-.71-5.02-1.04-1.55-.28-3.2-.61-4.8-.81l-1.16-.18c-.45-.02-.84-.12-1.38-.19-.09-.05-.31-.06-.45-.02l-.93-.17c-.49-.15-.75-.3-1.1-.49Zm-36.39,.26l.4-.12c.28-.08,.46-.21,.73-.29l.27-.08c.45,.02,.94-.06,1.39-.04l.18,.1c.48,.15,.83,.34,1.18,.54l.44,.24c.43,.46,.78,.88,1.25,1.48l.08,.05c1.44,2.38,1.39,6,.73,8.26-.68,2.48-1.99,4.04-3.75,4.56-.68,.2-1.35,.17-1.89,.11-1.5-.37-2.76-1.62-3.33-3.08-1.48-3.54-1.06-8.68,2.48-11.41l-.16-.32Zm41.32,6.77l.41-.12c.27-.08,.45-.21,.72-.29l.28-.08c.44,.02,.94-.05,1.38-.04l.18,.1c.49,.15,.84,.34,1.19,.54l.44,.24c.43,.46,.86,.93,1.19,1.57l.09,.05c1.34,2.56,1.33,6.32,.57,8.75-.77,2.66-2.13,4.31-3.81,4.87-.67,.2-1.34,.17-1.88,.11-1.51-.37-2.71-1.71-3.32-3.3-1.39-3.72-.92-9.16,2.69-12.21l-.13-.18Z"/><path class="cls-1" d="M352.08,783.16c2.8,4.8,9.6,7.7,14.8,9,6.5,1.7,13.4,1.7,19.8-.3,10.6-3.3,22.7-13.5,23.6-25.3,.1-.7-.9-.8-1.2-.3-3,4.8-5.1,9.4-9.2,13.5-4.1,4-9.3,7.2-14.8,8.8-5.6,1.6-11.6,1.8-17.3,.5-5.6-1.3-10-4.5-15.2-6.4-.4-.1-.7,.3-.5,.5Zm-8.1-15.7c-3.6,4.4-6.7,10.8-6,16.7,.6,5.1,4.4,6.7,8.9,7.4,8.1,1.3,14.5,6.3,22.3,8.2,6.6,1.6,13.6,1.5,20.1-.5,6.1-1.9,11.6-5.3,16.1-9.9,5.2-5.4,7.9-12.3,11.7-18.6,3.1-5.1,5.3-10.1,1.7-15.7-2.9-4.5-8.6-7.1-13.9-6.7-1.2,.1-1.7,2.1-.3,2.3,6,1,13.2,3.1,13.4,10.6,.1,5-4.9,10.3-7.3,14.5-5.6,9.8-12.6,17.8-23.9,20.8-5.5,1.4-11.3,1.5-16.8,.2-4.9-1.2-9.2-3.8-13.8-5.7-4.3-1.7-10.1-1.4-13.5-4.4-3-2.6-2.2-6-1.1-9.5,.9-3,2.3-5.9,3.8-8.6,.6-.8-.7-1.9-1.4-1.1Zm54.5-10c-.4,2.6,.4,5.1,1.4,7.5,.7,2,1.4,4.5,3.5,5.3,.3,.1,.6-.1,.7-.4,.3-2-1-3.7-1.8-5.5-1-2.4-1.6-5-3.1-7.1-.2-.1-.6-.2-.7,.2Zm1.8,7c.8,1.3,2.3,1.2,3.6,1.3,1.9,.1,3.8-.1,5.7-.3,1.7-.2,1.8-2.8,0-2.7-1.8,.1-3.5,.2-5.3,.2-1.3,0-2.8-.4-3.8,.7-.3,.2-.3,.5-.2,.8Zm-42.4,12.4c-1.1,.6-2,1.7-3,2.6-1,.9-2.1,1.8-3.1,2.6-1.2,.9,.4,3,1.6,2.1,1.2-.8,2.3-1.7,3.3-2.6,1-.9,2.2-1.8,2.8-3.1,.6-1-.5-2.2-1.6-1.6Zm-1.5-6.7c.6,2.5,1.3,5,1.8,7.6,.4,2.2,.1,5.1,1.5,6.9,.4,.6,1.4,.7,1.8,0,1.3-2.2,.2-5.3-.5-7.7-.8-2.6-2.1-5.1-3.9-7.2-.3-.3-.8,.1-.7,.4Zm16-13c3.5,.4,7.4-1.5,10.3-3.3,2.3-1.4,6.1-3.7,6.3-6.6,0-.3-.3-.4-.5-.4-1.3,.3-1.7,.9-2.7,1.8-1.4,1.3-2.9,2.5-4.5,3.6-2.8,1.8-6.1,2.7-8.9,4.4-.3,.1-.2,.4,0,.5Zm5.7-17.9c.6,.4,1.2,.9,1.7,1.5,.5,.5,1.6,1.4,.5,2-.9,.5-2.1,.3-2.7,1.2-.1,.1,0,.2,0,.3,1.1,1,3.8-.2,4.2-1.5,.5-1.7-2.3-3.3-3.5-4-.2-.2-.5,.3-.2,.5Zm7.4-23.2c-3.3,3,1.4,11.2,5.6,8.3,1.8-1.3,2.6-3.9,2.1-6-.3-1.5-1.7-4.2-3.6-3.7-.5,.2-.7,.8-.3,1.2,.7,.8,1.2,1.3,1.4,2.3,.3,1.2,.3,2.8-.5,3.8-1.3,1.6-2.7-1-3.1-2.1-.4-1.1,0-2.1,0-3.2,0-.8-1-1.1-1.6-.6Zm.9,.2c-.7,1-.9,2.3-.7,3.4,.2,1.1,.8,2.2,1.6,3.1,.5,.6,1.3,1.3,2.2,1.1,.8-.1,1.3-.7,1.7-1.3,.9-1.5,1.1-3.2,.6-4.7-.3-.9-.9-2.4-2-2.5l-3.4,.9Zm-3.4,10.2c2.7,.4,5.2-.2,7.8-1,1.9-.6,5-1.1,5.7-3.2,.1-.3-.1-.7-.5-.8-1.9-.6-4.1,1.2-5.9,1.8-2.4,.8-4.8,1.3-7.2,2.3-.2,.2-.4,.8,.1,.9Zm-30,9.2c2.5,.8,5.2,.4,7.8-.1,2.1-.4,5.3-.8,6.4-2.9,.2-.4,0-.9-.4-1-2-.5-4.2,1-6.1,1.6-2.5,.7-5.1,.8-7.6,1.5-.6,.2-.5,.8-.1,.9Zm27.3-16.5c2.5-.6,4.9-1.7,7.4-2.4,2-.5,4.6-.4,6-1.8,.3-.3,.2-.8-.1-1-2-1.2-4.9,.1-6.9,.8-2.4,.8-4.9,1.8-6.8,3.7-.3,.3,0,.8,.4,.7Zm-24,5.8c.3-.1,.6-.2,.9-.2-.3-.1-.7,0-.9,.2-2.9,3.2,1.5,12.8,5.9,9.5,2-1.5,2.5-4.7,1.8-7-.4-1.6-1.7-4.3-3.7-3.9-.6,.1-.6,.8-.3,1.2,1.5,1.8,2.9,5.2,1.2,7.4-1.3,1.7-2.5-1.2-3-2.3-.6-1.5-.3-2.7-.4-4.2,.1-.8-.9-1.3-1.5-.7Zm.9,.2c-.7,1.2-.8,2.6-.5,3.9s.9,2.5,1.7,3.6c.5,.7,1.3,1.5,2.2,1.4,.8-.1,1.3-.8,1.7-1.4,.9-1.6,1-3.6,.4-5.4-.4-1.1-1-2.8-2.2-3l-3.3,.9Zm-6,3c2.5-.7,4.8-1.9,7.2-2.6,1.9-.5,4.7-.3,6.1-1.8,.3-.3,.2-.8-.1-1-1.9-1.3-5,.1-7,.8-2.5,.9-4.9,1.9-6.7,3.9-.3,.3,0,.8,.5,.7Zm43.1-21.5c-2.8-2-6.9-1.3-9.9-.1-2.6,1-6.6,3.2-7.1,6.3-.1,.7,.5,1.2,1.1,.9,2.6-1.4,4.1-3.9,7-5,2.9-1.1,5.7-.7,8.6-1.1,.5-.1,.7-.7,.3-1Zm-30.9,10.3c-2.8-2-6.9-1.3-9.9-.1-2.6,1-6.6,3.2-7.1,6.3-.1,.7,.5,1.2,1.1,.9,2.6-1.4,4.1-3.9,7-5,2.9-1.1,5.7-.7,8.6-1.1,.6-.2,.7-.7,.3-1Zm28.6-44.9c3.3,14.5,8.3,28.6,12.5,42.8,1.7,5.6,2.4,11.9,4.9,17.3,2,4.3,4.4,5.5,9,5-.2-.6-.5-1.2-.7-1.7-1.1,1-1.3,2.6-2.4,3.6-.7,.6,0,2.1,1,1.7l4.5-1.8-1.2-1.5c-1.6,1.8-2.2,4.1-4,5.8-2.9,2.8-8,5.4-12.2,4.6-1.6-.3-2.3,2.1-.7,2.5,3.9,.9,7.8-.6,11.1-2.6,1.8-1.1,3.6-2.6,4.8-4.4,.9-1.3,1.2-3.3,2.3-4.5,.6-.6,0-2-.9-1.6-1.4,.5-2.9,1.1-4.3,1.7,.3,.6,.7,1.1,1,1.7,1.1-1,1.3-2.6,2.4-3.5,.6-.6,.2-1.8-.7-1.7-7.4,.8-8.6-7.7-10.1-13.2-1.6-5.6-2.9-11.3-4.5-16.9-3.1-11.1-6-22.6-10.4-33.4-.4-1.1-1.6-.8-1.4,.1Zm-66.8,68.2c.7,.4,1.4,.7,2.1,1.1,.5,.3,1.1,.9,1.8,.9,.1,0,.3-.1,.2-.2-.1-.8-.9-1.2-1.5-1.6-.8-.4-1.6-.7-2.5-.7-.2,0-.3,.4-.1,.5Zm-2.6-3.5c1.8,.1,3.3,1.1,4.6,2.3,.6,.6,1.6,2,.3,2.5-.6,.3-2-.2-2.5-.6-.3-.2-.7,0-.6,.3,.4,1.7,1.4,3,3.3,2.5,1.6-.4,2.6-1.9,2.3-3.6-.3-1.8-2-3-3.4-3.9-1.3-.8-3.1-1.6-4.4-.3-.1,.4,.1,.8,.4,.8Zm8.8,8.8c-5.1,1-9.4-1.4-10.8-6.6-.7-2.7-.9-6.9,3.6-5.8,2.1,.6,4.1,2.2,5.6,3.8,.8,.8,2.4,0,2-1.1-.6-1.6-.8-3.4-1.9-4.8-.3-.5-1.2-.5-1.4,.2-.4,1.9,.3,3.5,1,5.3,.7-.4,1.3-.8,2-1.1-2.3-2.4-6.1-5.2-9.7-5-3.5,.2-4.3,4-4.1,6.8,.5,6.6,7.4,14.6,14.4,10.2,1-.7,.4-2.1-.7-1.9Zm63.1-53.1c2,12.9,8,24.8,10.4,37.5,2.4,12.7-5.3,25.1-13,34.7-9.6,11.9-23.8,6.2-36.3,3-6.2-1.6-14.2-2.3-18.1-8-2.6-3.9-3.7-8.6-6.6-12.4-.9-1.2-3-.1-2.1,1.2,3.3,4.7,4.1,10.9,8,15.1,4.2,4.4,11.4,5.1,17,6.5,11.5,2.8,26.3,8.8,36.4-.5,4.6-4.2,7.8-10.3,10.9-15.6,3-5.2,5.6-10.9,5.9-17,.4-7.6-2.6-15.1-4.6-22.2-2.2-7.6-4-15.4-7.2-22.6-.2-.5-.8-.1-.7,.3Zm-22.5-5.2c-2.9-2-5.7,1.1-7.3,3.3-2.1,2.8-5.9,8.4-4.6,12,.2,.5,.7,.6,1.2,.3,2.2-1.7,2.8-5.4,4.2-7.8,1.5-2.8,3.1-6.1,6.4-6.7,.5-.1,.5-.9,.1-1.1Zm-20.8,5.6c-4.1-2.5-6.4,3.5-7.9,6.2-1.6,2.8-3.3,5.6-4.8,8.5-1.1,2-2.5,3.9-2,6.2,.1,.5,.6,.6,1,.4,3-1.4,4.3-6,5.7-8.8,1.9-3.8,3.8-10.4,8-12,.1-.1,.2-.4,0-.5Zm-13-14.6c-9.9,1-13.2,10.4-16.4,18.4-3.6,9.3-10.1,20.3-4.9,30.2,.6,1.2,2.5,.9,2.9-.4,1.5-5.7,3.3-11.7,8.2-15.5-.8-.6-1.6-1.3-2.5-1.9-2.6,7.6-1.7,15.5,2.5,22.3,1,1.6,3.5,.6,3.1-1.3-1.2-4.5-.8-8.8,1.3-13-1-.1-2-.3-3-.4,.1,.4,.1,.8,.2,1.3,.2,1.3,1.9,1.5,2.8,.7,2.8-2.5,5.5-5.1,7.9-8.1-1-.4-2-.8-3-1.3-1,3.6-2.8,6.6-5,9.6-.8,1.1,.5,2.9,1.9,2.4,11.2-4.1,20.9-10.8,28.6-19.9-.9-.5-1.8-1-2.7-1.6-.4,1.3-.9,2.6-1.3,3.9-.4,1.1,.8,2.3,2,2,5.2-1.7,9.7-4.4,13.7-8.1-.9-.5-1.8-1-2.6-1.5-.7,2.2-1.4,4.3-2.1,6.5-.5,1.4,1.2,2.4,2.3,1.8,8.1-4,14.2-12.1,16.2-20.8h-3c1,5.2,2.2,10.2,4.7,14.8,.6,1,2.1,1,2.7,0,1.2-2.1,2.5-4.3,3.7-6.4,1-1.7-1.7-3.3-2.7-1.6-1.3,2.1-2.5,4.3-3.8,6.4h2.7c-2.3-4.4-3.4-9.2-4.3-14.1-.3-1.5-2.7-1.4-3,0-1.8,8-7.4,15.2-14.8,18.9,.8,.6,1.5,1.2,2.3,1.8,.7-2.2,1.4-4.3,2.2-6.5,.5-1.6-1.6-2.6-2.6-1.5-3.6,3.4-7.6,5.8-12.3,7.3l2,2c.4-1.3,.9-2.6,1.3-3.9,.5-1.5-1.7-2.8-2.7-1.6-7.3,8.7-16.5,15.2-27.2,19,.6,.8,1.2,1.6,1.9,2.4,2.3-3.2,4.2-6.5,5.3-10.3,.6-1.9-2-2.7-3-1.3-2.1,2.8-4.7,5.1-7.4,7.5,.9,.2,1.9,.5,2.8,.7-.1-.4-.1-.8-.2-1.3-.2-1.4-2.4-1.6-3-.4-2.5,5-3.1,10.1-1.7,15.6,1-.4,2-.9,3.1-1.3-3.8-6.1-4.5-13-2.1-19.7,.5-1.3-1.3-2.8-2.5-1.9-5.7,4.4-7.7,10.8-9.5,17.5,1-.1,1.9-.3,2.9-.4-4.3-8.1,1.2-17.5,4.1-25.1,3-7.6,5.6-17.7,14.6-20,.7-.2,.5-2-.6-1.9Zm35.1-23.1c1.3-3.6-1.4-8-4.3-10-.3,.6-.5,1.2-.8,1.8,3.9,1.3,6.5,4.1,8.1,7.8,.2,.5,.9,.5,1.3,.2,3-3.1,7.8-3.3,11.1-.6,.3-.6,.5-1.3,.8-1.9-4.2,.3-7.7,2-10.7,4.9-.9,.9,.1,2.2,1.2,2,.5-.1,1.6-1.1,1.8-1.1,2.1-.1,4.6,4.2,5.6,5.6,2.2,3.1,4.4,6.2,5.6,9.7,.6-.3,1.3-.5,1.9-.8-1.1-1.6-1.9-2.2-3.9-2.6-1.2-.3-1.8,1.6-.5,1.9,.9,.6,1.7,1.2,2.6,1.8,.6,1,2.3,.4,1.9-.8-1.5-4.7-4.4-9-7.5-12.9-1-1.3-3.2-4.5-5.1-4.7-1.8-.2-1.7,1.4-3.1,1.6,.4,.7,.8,1.3,1.2,2,2.5-2.5,5.4-4.1,9-4.4,.8-.1,1.6-1.2,.8-1.9-4.4-3.5-9.9-3-13.8,1,.5,.1,.9,.2,1.4,.4-1.3-4.7-4.5-7.7-9.1-9.1-1.1-.4-1.7,1.2-.8,1.8,3,2,3.8,5.1,4.9,8.3,.1,.1,.3,.1,.4,0Zm-19.6-4.6c-1.3-.9-2.6-1.7-4.1-2.4-.2,.6-.3,1.2-.5,1.8,4.5,0,9-.2,13.4,.7,3.6,.7,6.5,2.6,9.9,3.7,1,.3,1.4-.9,.9-1.5-5.1-6.3-17.1-5.3-24.2-4.8-1.1,.1-1.2,1.5-.3,1.9,1.5,.6,2.9,1,4.5,1.5,.5,0,.8-.7,.4-.9Zm-17.4,6.2c-2-2.6-5-2.6-8-1.6,.3,.8,.7,1.6,1,2.4,3.6-1.8,7.2-3.7,11-4.8,4-1.2,7.8-.5,11.9-.8,.8-.1,1.2-1.1,.4-1.6-7.3-4.5-18.1,1.5-24.7,5-1.5,.8-.2,2.9,1.3,2.2,2.4-1,4.3-.5,6.7-.2,.3,0,.6-.4,.4-.6Zm.1,.1c-8.7,1.8-16.3,8.4-21.9,15.1-.6,.7-.1,2,1,1.7,2.1-.6,4.2-1.3,6.3-1.9,1.2-.4,.7-2.2-.5-1.9l-6.3,1.8c.3,.6,.7,1.1,1,1.7,5.9-7,13.1-11.2,20.6-16.2,.2,0,0-.3-.2-.3Zm-26.3,64.6c-4.2,10.7,2.2,23.8,5.3,34,.3,1.1,2,1.1,2.3,0,.5-1.6,.9-3.2,1.4-4.7h-2c2,5.1,4.7,18.3-5.4,16.4-1.6-.3-2.3,2.1-.7,2.5,1.8,.4,3.5,.6,5.4,.7-.3-.6-.7-1.2-1-1.7-.8,1-1.7,2.1-2.5,3.1-.8,.6-.4,1.9,.7,1.7,2.7-.7,5.4-1.3,8.1-1.9-.3-.5-.6-1-.8-1.4-1.1,.7-2.2,1.3-3.2,2-1,.3-.9,2.1,.3,1.9,2.3-.3,4.4-.8,6.6-1.7-.3-.5-.7-.9-1-1.4-1,.6-1.9,1.2-2.9,1.9-1.1,.1-1.2,1.8,0,1.8,8.6-.4,17.8-.9,24.7-6.8,.9-.8-.4-2-1.3-1.3-6.8,5.3-15.1,6-23.4,6.3v1.8c2.1-.2,3.3-.9,4.5-2.7,.4-.6-.3-1.7-1-1.4-2.1,.8-3.8,1.3-6.1,1.5,.1,.6,.2,1.3,.3,1.9,1.6-.7,2.7-1.3,3.9-2.6,.6-.6,0-1.6-.8-1.4-2.7,.6-5.4,1.2-8.2,1.8,.2,.6,.5,1.1,.7,1.7,1.6-1,2.6-1.9,3.6-3.5,.5-.8-.2-1.7-1-1.7-1.6-.1-3.2-.4-4.7-.8-.2,.8-.5,1.7-.7,2.5,3.9,1,7.6-.8,9.4-4.4,2.5-4.9,.4-10.3-1.3-15-.4-1-1.7-1-2,0-.5,1.6-1.1,3.1-1.6,4.7h2.3c-3.1-11-6.8-21.6-6.3-33.2-.2-1.2-1.3-1.3-1.6-.6Zm10.9-50.5c-4.1,1.6-8.5,4.1-10.6,8.1-1.6,3-2.9,6.7-4.3,9.8-.4,.9,.9,1.5,1.6,.9,1.7-1.5,3.5-2.8,5.3-4.2-.5-.4-1-.7-1.4-1.1-2.3,8-7.3,14.4-10.5,22-.4,.9,.3,2.2,1.4,1.8,3.1-1.1,5.2-2.8,6.8-5.8-.7-.2-1.5-.4-2.2-.6,.8,9.1-1.6,17.6-6.9,25-.6,.9,.4,2,1.4,1.8,9.1-2.4,14.6-11.5,18.3-19.5,.6-1.4-1.4-2.6-2-1.2-3.4,7.4-8.5,16.2-16.8,18.4,.5,.6,.9,1.2,1.4,1.8,5.6-7.7,8-16.7,7.2-26.2-.1-1.1-1.6-1.7-2.2-.6-1.2,2.2-3,3.8-5.4,4.6,.5,.6,.9,1.2,1.4,1.8,3.3-7.7,8.4-14.4,10.3-22.7,.2-1-.9-1.6-1.6-1-1.7,1.5-3.4,2.9-5.2,4.2l1.3,1.3c.9-1.9,2.2-3.6,3-5.5,1.1-2.7,1.7-5.2,4-7.4,1.9-1.9,4.3-3.3,6.5-4.9-.1-.2-.3-1-.8-.8Z"/><path class="cls-1" d="M1770.8,341.4c2.3-6.5,3.1-16.7-.5-23.4,.7-.3,1.3-.6,2-.9,1.2-.6,.8-2.2-.4-2.4-9.3-1.6-18.9,1-27.7,3.9-8.8,2.9-17.2,6.8-25,11.8-11.6,7.5-28.8,21-23.6,36.7,.5,1.4,2.5,.6,2.4-.7-1-6.9,5.3-13.2,9.9-17.4,.3-.3,.6-.6,.9-.8,.1,.7,.2,1.5,.2,2,.2,2.5,.1,5.4,1.1,7.8-2.7,2.4-5.2,4.9-7.8,7.4-.6,.6,.1,1.5,.8,1,3-2.1,6-4.2,8.9-6.4,.5,0,1-.3,1.3-.7,2.9,2.4,7,3.3,10.5,4.6,1.8,.7,3.6,1.3,5.3,1.8-9.4,2-19.2,2.6-28.7,3.5,.3-.6-.3-1.4-1-1.1-1,.4-2.1,.9-3.1,1.5h-.2c-.6,.1-1,.4-1.2,.8-7.2,4.3-13.9,11.5-16.7,19.1-.3,.9,.9,1.9,1.6,1.1,3.4-3.5,6.2-7.5,9.7-11.1,2.2-2.3,4.6-4.4,6.9-6.5,19.5,1.9,40.7,1.1,57.4-10.4,7.4-5.1,13.9-12.5,17-21.2h0Zm-3.1-12.3c-.1,3.1-.7,6.1-1.8,9.1-4-.8-7.8-1.3-12-1.5-4-.1-7.8,.1-11.7,.5,8-5.9,16.1-11.6,24.2-17.3,.6,3,1.4,6,1.3,9.2h0Zm-19.2-4c3.3-1.2,6.6-2.1,10-3.1-6.5,4.2-13,8.5-19.4,12.9,.5-1.6,.9-3.2,1.2-4.9,.1-.6,.3-1.2,.4-1.9,2.6-1.1,5.2-2.1,7.8-3Zm-21.2,9.7c3-1.7,6-3.3,9.1-4.8-.4,2.5-.6,4.8-.7,7.3-3.2,2.3-6.4,4.7-9.5,7.1,.4-2,.2-4.2,.1-6.3,0-.9-.1-1.8-.2-2.7,.4-.1,.8-.4,1.2-.6h0Zm-13.9,15c-.2-1.3-.2-3.4-.7-5,3.2-2.6,6.6-5,10-7.2,0,1.1-.1,2.1-.1,3,.1,2.1,.1,4,1,5.8-3.3,2.6-6.5,5.3-9.6,8-.2-1.5-.5-3.1-.6-4.6h0Zm33.4,9.6c-3.6,2-7.3,3.5-11.1,4.7-3.1-1.7-6.2-3.2-9.7-4.4-3.1-1-6.6-2.5-10-2.6l9.9-7.5c8.3,3.9,16.7,6.4,25.6,7-1.6,1-3.2,1.9-4.7,2.8Zm8.3-5.8c-9-2.3-18-4-27.1-5.8,2.3-1.8,4.6-3.5,6.9-5.2l4.5-3.3c8.5,.4,17,.7,25.5,1.2-.2,.4-.3,.7-.5,1.1-2.1,4.6-5.4,8.6-9.3,12h0Z"/><path class="cls-1" d="M1653.56,77.8c3.8,10.1,.6,19.4-3.2,28.9-.8,1.9,1.9,3,3.2,1.9,8.8-8.1,7.4-22,1.5-31.4-.5-.8-1.8-.4-1.5,.6Zm-24.3,67.8c-3.3-6.2-9.3-10.6-13.4-16.2-4.4-6.1-7-13-8.3-20.4-2.6-14.7,3.2-30.1,14.1-40.2,11-10.2,30-14.4,42.1-3.7,12.7,11.3,11.5,30.2,3.4,43.7-5.1,8.5-12.5,15.4-20.6,21.1-8,5.5-16.4,9.8-23.9,16.1-1.8,1.5,.1,4.5,2.3,3.9,19.2-5.5,38.4-20,48.2-37.6,8.7-15.5,9.8-36.2-2.2-50.4-12.1-14.4-33.4-14.4-48.9-5.9-16.5,9-26.7,27.2-27.3,45.8-.3,10.6,3,20.9,9,29.6,5.3,7.7,14.1,17.7,24.5,16.3,.8-.2,1.5-1.1,1-2.1Zm-38.3,128.2c2.3-9.5,6.9-19,11.1-27.8,4.3-9,9.7-17.7,13.3-26.9,8.8-22.7-4.5-50.9,13.5-70.5,.9-1-.3-2.8-1.5-1.9-22.7,15.4-12.9,46.1-19.5,68.6-2.9,10.1-8.6,19.7-12.7,29.3-3.7,8.8-9.4,19.5-7.7,29.3,.4,1.6,3.2,1.5,3.5-.1Z"/><path class="cls-1" d="M1850.77,101.64c1.96,.85,4.34,1.29,6.2,.1,.54-.34,.27-.99-.26-1.07-1.82-.27-3.62-.03-5.43-.71-1.12-.34-1.53,1.31-.51,1.67Zm-4-4.88c1.48,.15,3.05,.27,4.53,.42,.63,.05,.88-1.04,.22-1.19-1.5-.24-3.01-.49-4.41-.76-1.19-.22-1.51,1.41-.34,1.53Zm-5.45-7.4c1.16,.53,2.35,1.17,3.51,1.7,1.17,.53,2.26,.78,3.54,.97,.66,.15,1.07-.68,.46-1.04-1.01-.78-1.98-1.36-3.22-1.77-1.24-.41-2.47-.83-3.61-1.26-.9-.29-1.51,.99-.68,1.41Zm-34.55,41.28c1.89,7.57,6.88,13.13,14.49,15.14,.88,.2,1.31-.94,.59-1.38-5.46-3.69-10.77-8.45-14.42-14.03-.2-.36-.78-.22-.66,.27Zm6.03-14.28c4.36,9.63,11.29,18.42,21.59,21.72,.78,.22,1.14-.8,.51-1.26-8.19-6-16.07-11.97-21.3-20.97-.34-.53-1.04-.05-.8,.51Zm17.41,7c-10.42,12.39-22,23.83-32.17,36.36-.39,.51,.17,1.09,.68,.65,12.94-9.72,23.57-22.88,33.16-35.68,.78-1.02-.87-2.26-1.67-1.34Zm-3.05-7.28c-7.39,11.32-16.49,21.52-24.23,32.63-.37,.61,.38,1.14,.89,.7,10.32-9.06,17.41-21.14,23.58-33.18,.14-.24-.2-.36-.24-.15Zm-4.34-7.06c-8.43,12.1-15.76,25.26-23.19,38.04-.27,.58,.51,1.21,.9,.7,9.41-11.42,18.37-24.26,24.04-37.94,.46-1.04-1.24-1.65-1.75-.8Zm-4.02-7.45c3.43-14.36,20.73-20.21,32.41-11.37,5.7,4.25,9.01,10.95,8.94,18.08-.13,7.76-3.94,13.97-9.04,19.57-.49,.53,.17,1.5,.77,1.04,13.62-9.47,13.56-30.79,.74-40.89-13.02-10.05-32.52-3.54-35.62,13,0,1.24,1.56,1.67,1.8,.58Zm-1.75,.02c1.99,5.9,4.85,11.16,9.43,15.48,4.02,3.74,9.67,8.62,15.41,8.52,1.85-.05,3.11-2.42,1.63-3.81-3.68-3.62-9.02-5.17-12.97-8.62-4.21-3.69-8.12-7.77-11.14-12.47-.71-1.16-2.82-.54-2.36,.9Zm1.56-2.45c-7.68,11.81-13.34,25.07-19.43,37.82-3.04,6.43-6.3,12.8-8.99,19.35-1.51,3.47-1.85,7.88,2.29,9.63,4.61,1.94,9.32-2.32,12.86-4.65,6.02-3.97,11.92-8.02,17.93-11.99,5.76-3.8,11.26-7.75,16.87-11.73,5-3.51,11.53-7.1,14.97-12.29,.51-.85-.34-1.77-1.21-1.55-5,1.04-9.87,4.62-14.17,7.24-4.73,2.93-9.36,5.84-14.1,8.77-9.8,6.15-19.53,12.6-29.11,19.21-.54,.34-1.51,2.64-.25,.27,.63-1.19,1.12-2.55,1.63-3.81,1.07-2.33,2.02-4.73,2.99-7.03,2.28-5.31,4.54-10.72,6.83-16.03,4.47-10.6,9.3-21.38,12.32-32.44,.36-1.02-.92-1.63-1.43-.78Z"/><path class="cls-1" d="M111.66,987.15c-.82,.62-1.13,1.58-.99,2.51,.08,.8,.53,1.54,1.35,1.9,.18,.08,.41,.07,.59,.15,.77,.23,1.52,.01,2.17-.47,1.12-.82,1.31-2.48,.49-3.61-.91-1.16-2.53-1.44-3.61-.49Zm4.83,6.16c-1.12,.82-1.31,2.48-.49,3.61,.82,1.12,2.48,1.31,3.61,.49,.04-.09,.13-.05,.17-.14,.3-.2,.65-.48,.85-.94,.28-.64,.2-1.44-.19-2.05-.05-.13-.19-.3-.34-.47-.91-1.16-2.53-1.44-3.61-.49Zm4.83,6.16c-.21,.23-.42,.47-.6,.61-.17,.14-.29,.42-.37,.6-.56,1.28,.06,3.09,1.39,3.56,1.41,.51,2.96-.01,3.56-1.39,.28-.64,.29-1.4,.07-2.15-.06-.36-.26-.66-.45-.96-.9-.94-2.52-1.22-3.6-.27Zm-18.96-84.22c-5.32,1.92-10.07,6.28-14.55,9.78-4.79,3.69-9.61,7.47-14.34,11.29-4.83,3.78-9.47,7.64-14.2,11.46-4.26,3.48-10.43,7.1-13.47,11.78-1.45,2.31-.73,5.14,.63,7.27,.92,1.39,3.92,5,5.81,3.42,1.85-1.48,3.66-2.87,5.51-4.35,1.64-1.25,1.83-1.93,3.3-.3,1.61,1.8,2.93,4.02,4.55,5.82,7.92,8.83,27,24.08,39.28,14.51-4.14,3.21-5.43,8.65-5.36,13.7,.05,5.37,1.25,10.6,3.6,15.45,1.65,3.45,3.83,6.7,5.92,9.91,.58,.91,6.91,9.15,6.91,9.15l-8.49,6.65c-.86,.71-1.07,1.93-.39,2.88,1.25,1.64,3.57,6.05,5.97,5.57,.84-.18,1.58-.62,2.27-1.19,3.98-2.84,7.58-6.07,11.55-8.91,4.68-3.19,9.3-6.51,13.88-9.74,2.68-1.88,5.42-3.63,8.05-5.64,2.46-1.87,4.58-4.22,6.99-6.22,5.33-4.43,11.88-7.67,15.47-13.85,1.24-2.08-.35-3.43-1.6-5.07-.62-.82-1.25-1.64-1.96-2.5-.71-.86-1.93-1.07-2.89-.39l-8.49,6.65c.3-.19-10.37-12.2-11.42-13.31-4.29-4.4-8.85-7.71-14.69-9.83-5.75-2.09-13.01-3.2-18.14,.78,11.81-9.23,4.89-28.32-1.1-38.81-.74-1.31-6.65-11.98-8.59-10.54,1.81-1.39,8.04-4.88,7.78-7.29-.03-.67-.42-1.28-.72-1.84-.65-1.27-1.29-2.53-1.98-3.71-1.03-1.87-2.64-3.45-5.1-2.57Zm14.76,67.41c1.16-.15,2.36-.16,3.57-.18,6.24,.22,12.22,2.52,17.28,6.16,5.25,3.72,8.97,9.18,12.68,14.41-3.99,1.63-7.48,4.36-10.97,7.09-1.85,1.48-22.78,17.08-21.82,18.37-1.87-2.45-3.7-5-5.4-7.61-.82-1.12-1.54-2.2-2.36-3.33-.29-.34-.8-1.66-1.26-1.86-2.89-4.87-5.1-10.53-5.21-16.26-.09-2.77,.48-5.58,1.79-8.06,1.19-2.21,3.03-3.91,5.01-5.45,1.47-1.1,2.62-2.24,4.42-2.86,.84-.18,1.55-.3,2.26-.43Z"/><path class="cls-1" d="M144.48,476.11c-22.23,8.14-44.43,17.77-48.07,19.83-8.59,4.89-10.91,14.88-8.71,23.98,.95,3.91,2.52,7.65,3.98,11.37,4.56,11.64,8.37,23.55,12.88,35.21l2.26,5.77c3.6,8.85,7.9,21.97,18.86,23.88,4.66,.8,9.37,.15,13.84-1.16,2.65-.75,5.23-1.85,7.83-2.75,4.91-1.74,9.81-3.52,14.71-5.31,.97,4.18,2.29,8.2,4.02,12.16-.15-.27-6.83,2.43-7.39,2.64-3.19,1.16-6.5,1.73-9.82,2.41-2.53,.5-7.05,.81-8.64,3.15-2.05,2.98,.91,6.74,1.99,9.54,.12,.33,.32,.58,.5,.78,.3,.69,.67,1.4,1.02,2.08,.29,.64,.83,.97,1.42,1.13,.75-.43,1.59-.74,2.49-1.07,1.57-.52,3.2-.85,4.88-1.2l.42-.15s.08-.08,.12-.1c1.39-.56,2.83-1.14,4.22-1.7,3.06-.95,5.97-2.02,8.81-3.27,2.7-.34,5.57-1.5,8.09-2.63,4.18-1.52,8.3-3.08,12.48-4.6,.24-.09,.44-.11,.68-.19l.09-.03c2.01-.47,3.94-1.17,5.86-2.03,.83-.2,1.62-.38,2.42-.67,3.19-1.16,6.42-2.39,9.58-3.65l.09-.04c.88-.37,1.82-.71,2.69-1.09,.09-.03,.21-.02,.3-.06l.52-.19c4.72-1.93,9.48-3.77,14.34-5.33,.32,0,.6-.11,.91-.28l.33-.12s-.02-.05,.03-.06c.62-.49,1.02-1.28,.77-2.25-.69-2.78-1.54-5.55-2.05-8.4-1.14-6.34-6.59-2.76-9.29-.98-1.02,.69-3.39,1.5-5.76,2.74-4.93,2.38-11.07,4.67-11.27,4.27-1.68-3.77-3.01-7.67-3.92-11.72,8.66-3.1,17.1-6.26,23.03-8.97,10.85-4.97,15.06-15.92,13.13-27.93-1.14-7.35-4.96-14.63-7.66-21.47-3.49-8.84-6.97-17.68-10.51-26.5-4.22-10.7-7.51-24.24-20.37-26.84-6.9-1.4-26.52,4.61-46.14,11.78Zm-7.06,12.64c7.52-2.75,15.07-5.46,22.62-8.17,8.47-3.03,17.02-5.72,25.93-6.95,2.88-.41,5.8-.14,8.01,1.98,2.37,2.27,3.39,5.79,4.62,8.74,1.54,3.64,3.06,7.24,4.56,10.9,3.37,9.25,7.69,18.32,11.53,27.4,1.9,4.47,3.74,8.96,5.92,13.33,.1,.2,.23,.6,.39,1.08-17.52,5.65-34.99,11.58-52.32,17.9-.99,.36-1.96,.77-2.94,1.13h0c-16.33,5.99-32.71,11.88-49.08,17.75-.26-.6-.5-1.12-.63-1.44-4.78-12.25-9.61-24.48-14.4-36.73-3.01-7.68-5.97-14.48-6.58-22.72-.18-2.38,.54-7.86,5.01-9.76,12.33-5.13,24.81-9.85,37.35-14.43Zm80.71,29.87c.28,.69,.56,1.38,.83,2.07-.34-.67-.63-1.35-.83-2.07Zm-104.16,60.54l1.21-.43c.8-.26,1.6-.52,2.16-.7,.09-.03,.16-.08,.22-.15,17.37-6.2,34.71-12.47,52.03-18.83,.16-.06,.3-.13,.43-.21,17.63-6.42,35.43-12.5,53.32-18.22,.48-.14,1-.28,1.48-.48l.17-.06s.06-.03,.09-.04c.55,3.99,.22,8.11-1.2,11.88-2.09,5.5-6.43,9.37-11.34,12.38-3.73,2.32-68.02,24.31-72.62,25.72-4.39,1.39-8.38,1.67-12.87,1.18-4.13-.68-7.13-2.93-9.69-6.15-1.28-1.79-2.39-3.79-3.38-5.89Z"/><path class="cls-1" d="M170.89,564.36c-4.98,1.82-2.17,9.52,2.81,7.7,4.93-1.8,2.12-9.5-2.81-7.7Z"/><path class="cls-1" d="M1861.19,496.21l-46.05,.53c-7.42,.07-14.89-.05-22.26,.63-6.57,.57-14.25,1.64-19.37,6.18-.84,.74-.07,2.09,.87,2.15,.51-.03,.92-.03,1.46,.03-.44,.32-.77,.61-.84,1.15-.26,1-.03,1.87,.37,2.59,.15,.99,.28,1.89,.75,2.9,.52,1.21,1.14,2.39,1.78,3.67,1.46,2.82,2.8,5.58,4.26,8.4,2.82,5.26,5.66,10.62,8.48,15.88,2.81,5.26,5.65,10.62,8.47,15.88,1.24,2.36,2.65,5.41,4.3,8.18-1.5,2.15-2.77,4.44-3.37,6.87-.37,1.75,1.33,2.75,2.83,2.15,1.93-.92,3.64-2.29,5.2-3.84l.86,.5c1.41,.67,2.74-.2,2.96-1.7,.09-.85-.01-1.65-.14-2.55,2.4-2.69,4.74-5.58,7.02-8.34,5.03-6.07,9.97-12.11,15-18.17,9.98-12.1,19.92-24.31,29.87-36.51,2.1-2.62,.95-6.65-2.45-6.6Zm-33.22,37.9l-19.24,23.3c-.99-1.81-2.05-3.5-3.04-5.31-2.91-5.23-5.82-10.47-8.76-15.8-2.94-5.33-5.83-10.47-8.77-15.8-1.38-2.53-2.86-5.04-4.32-7.45l-2.22-3.76c-1.03-1.59-2.23-2.21-3.31-3.58-.15-.17-.27-.24-.41-.41,2.52-.24,5.06-.8,7.58-1.05,3.61-.42,7.29-.56,10.88-.67,7.01-.07,13.95-.02,20.98,.01,11.98-.02,23.96-.04,36.04-.09-8.58,10.3-16.99,20.44-25.41,30.59Z"/></svg>